<?xml version="1.0" standalone="no"?>
<!DOCTYPE svg PUBLIC "-//W3C//DTD SVG 20010904//EN"
 "http://www.w3.org/TR/2001/REC-SVG-20010904/DTD/svg10.dtd">
<svg version="1.0" xmlns="http://www.w3.org/2000/svg"
 width="864.000000pt" height="864.000000pt" viewBox="0 0 864.000000 864.000000"
 preserveAspectRatio="xMidYMid meet">
<metadata>
Created by potrace 1.14, written by Peter Selinger 2001-2017
</metadata>
<g transform="translate(0.000000,864.000000) scale(0.100000,-0.100000)"
fill="#000000" stroke="none">
<path d="M4100 6954 c-19 -2 -78 -9 -130 -15 -815 -91 -1380 -532 -1685 -1314
-51 -129 -117 -342 -113 -363 2 -8 17 6 37 34 61 86 310 325 406 391 170 114
337 185 520 219 70 13 125 15 245 11 213 -8 344 -38 501 -117 175 -87 283
-176 654 -540 165 -162 343 -329 395 -371 282 -226 598 -381 922 -453 192 -43
315 -57 538 -63 485 -13 855 61 1200 238 169 88 287 175 440 329 228 228 381
475 506 819 45 122 104 321 96 321 -4 0 -23 -22 -42 -48 -65 -88 -265 -284
-370 -363 -170 -128 -376 -219 -567 -249 -99 -16 -307 -13 -414 5 -179 31
-342 99 -488 203 -111 79 -197 157 -481 437 -151 149 -316 305 -366 347 -353
291 -706 449 -1161 518 -102 16 -199 22 -373 25 -129 2 -251 1 -270 -1z"/>
<path d="M1921 4360 c-512 -43 -928 -208 -1246 -494 -277 -249 -504 -633 -630
-1066 -20 -69 -38 -132 -41 -140 -6 -19 -3 -16 96 103 202 243 454 426 695
506 372 123 798 57 1106 -170 115 -85 129 -98 424 -388 422 -416 593 -551 871
-689 213 -107 421 -172 674 -213 162 -27 553 -37 737 -20 934 87 1538 601
1828 1555 19 66 34 123 32 129 -1 5 -30 -24 -62 -64 -159 -197 -364 -368 -561
-467 -176 -88 -331 -125 -534 -125 -325 -2 -569 88 -832 305 -35 29 -191 178
-348 333 -157 154 -330 318 -385 364 -356 296 -744 465 -1210 526 -145 19
-472 27 -614 15z"/>
</g>
</svg>
